<svg xmlns="http://www.w3.org/2000/svg" width="512" height="512" viewBox="0 0 512 512" role="img" aria-label="LiteShip icon" color="#101723"><defs><mask id="railCut" maskUnits="userSpaceOnUse" x="0" y="0" width="512" height="512"><rect width="512" height="512" fill="white"/><path d="M256 74 L256 424" stroke="black" stroke-width="19" stroke-linecap="round"/><circle cx="256" cy="154" r="31" fill="black"/><circle cx="256" cy="256" r="31" fill="black"/><circle cx="256" cy="358" r="31" fill="black"/></mask></defs><g mask="url(#railCut)"><path d="M54 405 L58 337 C60 309 74 288 98 274 L151 241 L156 426 L54 426 Z" fill="currentColor"/><path d="M176 426 L183 143 C184 115 205 91 244 50 L244 426 Z" fill="currentColor"/><path d="M268 426 L268 50 C307 91 328 115 329 143 L336 426 Z" fill="currentColor"/><path d="M356 426 L361 241 L414 274 C438 288 452 309 454 337 L458 405 L458 426 L356 426 Z" fill="currentColor"/></g></svg>
